<?xml version="1.0" encoding="UTF-8"?>
<!DOCTYPE svg PUBLIC "-//W3C//DTD SVG 1.1//EN" "http://www.w3.org/Graphics/SVG/1.1/DTD/svg11.dtd">
<svg xmlns="http://www.w3.org/2000/svg" version="1.1" width="1009px" height="226px" style="shape-rendering:geometricPrecision; text-rendering:geometricPrecision; image-rendering:optimizeQuality; fill-rule:evenodd; clip-rule:evenodd" xmlns:xlink="http://www.w3.org/1999/xlink">
<g><path style="opacity:1" fill="#f8f0fc" d="M -0.5,-0.5 C 335.833,-0.5 672.167,-0.5 1008.5,-0.5C 1008.5,57.1667 1008.5,114.833 1008.5,172.5C 761.166,172.478 513.832,172.311 266.5,172C 252.167,185.667 237.833,199.333 223.5,213C 221.966,213.923 220.299,214.423 218.5,214.5C 213.695,213.764 209.362,211.93 205.5,209C 191.337,196.145 182.171,180.312 178,161.5C 169.512,125.333 176.179,92.3326 198,62.5C 204.447,54.6897 212.614,50.8564 222.5,51C 236.833,64.6667 251.167,78.3333 265.5,92C 270.226,94.2549 274.393,93.4216 278,89.5C 278.667,76.8333 278.667,64.1667 278,51.5C 277.097,50.2986 275.931,49.4652 274.5,49C 251.168,47.8888 227.835,47.2221 204.5,47C 185.989,48.0559 169.489,54.2226 155,65.5C 154.667,60.5 154.333,55.5 154,50.5C 153.5,50 153,49.5 152.5,49C 104.167,48.3333 55.8333,48.3333 7.5,49C 7,49.5 6.5,50 6,50.5C 5.33333,67.5 5.33333,84.5 6,101.5C 9.24177,104.241 12.2418,103.908 15,100.5C 27,84.5 39,68.5 51,52.5C 53.7191,51.5562 56.5525,51.2229 59.5,51.5C 59.3333,105.168 59.5,158.834 60,212.5C 60.8333,213.333 61.6667,214.167 62.5,215C 74.1667,215.667 85.8333,215.667 97.5,215C 98.6667,214.5 99.5,213.667 100,212.5C 100.5,158.834 100.667,105.168 100.5,51.5C 104.007,50.9935 107.174,51.6602 110,53.5C 118.91,64.9883 127.577,76.655 136,88.5C 133.249,98.257 131.249,108.257 130,118.5C 126.422,144.623 131.755,168.623 146,190.5C 160.143,205.822 177.643,214.655 198.5,217C 224.186,217.517 249.852,217.017 275.5,215.5C 519.832,205.229 764.165,194.896 1008.5,184.5C 1008.5,198.167 1008.5,211.833 1008.5,225.5C 672.167,225.5 335.833,225.5 -0.5,225.5C -0.5,150.167 -0.5,74.8333 -0.5,-0.5 Z"/></g>
<g><path style="opacity:1" fill="#66778c" d="M 597.5,2.5 C 609.947,0.301268 618.447,4.96793 623,16.5C 623.346,34.8215 614.512,42.3215 596.5,39C 585.422,32.0896 582.588,22.5896 588,10.5C 590.772,7.21655 593.939,4.54988 597.5,2.5 Z"/></g>
<g><path style="opacity:1" fill="#66778c" d="M 810.5,2.5 C 822.947,0.301268 831.447,4.96793 836,16.5C 836.346,34.8215 827.512,42.3215 809.5,39C 798.422,32.0896 795.588,22.5896 801,10.5C 803.772,7.21655 806.939,4.54988 810.5,2.5 Z"/></g>
<g><path style="opacity:1" fill="#72a5e7" d="M 1008.5,172.5 C 1008.5,175.5 1008.5,178.5 1008.5,181.5C 937.833,181.333 867.166,181.5 796.5,182C 623.829,189.421 451.162,196.921 278.5,204.5C 278.664,207.187 278.497,209.854 278,212.5C 277.302,213.691 276.469,214.691 275.5,215.5C 249.852,217.017 224.186,217.517 198.5,217C 177.643,214.655 160.143,205.822 146,190.5C 131.755,168.623 126.422,144.623 130,118.5C 131.249,108.257 133.249,98.257 136,88.5C 127.577,76.655 118.91,64.9883 110,53.5C 107.174,51.6602 104.007,50.9935 100.5,51.5C 100.667,105.168 100.5,158.834 100,212.5C 99.5,213.667 98.6667,214.5 97.5,215C 85.8333,215.667 74.1667,215.667 62.5,215C 61.6667,214.167 60.8333,213.333 60,212.5C 59.5,158.834 59.3333,105.168 59.5,51.5C 56.5525,51.2229 53.7191,51.5562 51,52.5C 39,68.5 27,84.5 15,100.5C 12.2418,103.908 9.24177,104.241 6,101.5C 5.33333,84.5 5.33333,67.5 6,50.5C 6.5,50 7,49.5 7.5,49C 55.8333,48.3333 104.167,48.3333 152.5,49C 153,49.5 153.5,50 154,50.5C 154.333,55.5 154.667,60.5 155,65.5C 169.489,54.2226 185.989,48.0559 204.5,47C 227.835,47.2221 251.168,47.8888 274.5,49C 275.931,49.4652 277.097,50.2986 278,51.5C 278.667,64.1667 278.667,76.8333 278,89.5C 274.393,93.4216 270.226,94.2549 265.5,92C 251.167,78.3333 236.833,64.6667 222.5,51C 212.614,50.8564 204.447,54.6897 198,62.5C 176.179,92.3326 169.512,125.333 178,161.5C 182.171,180.312 191.337,196.145 205.5,209C 209.362,211.93 213.695,213.764 218.5,214.5C 220.299,214.423 221.966,213.923 223.5,213C 237.833,199.333 252.167,185.667 266.5,172C 513.832,172.311 761.166,172.478 1008.5,172.5 Z"/></g>
<g><path style="opacity:1" fill="#65768c" d="M 906.5,49.5 C 923.566,49.0645 940.566,49.8978 957.5,52C 958.931,52.4652 960.097,53.2986 961,54.5C 961.82,65.7431 961.653,76.9098 960.5,88C 958.833,88.6667 957.167,88.6667 955.5,88C 945.977,76.6449 936.644,65.1449 927.5,53.5C 917.62,51.01 909.453,53.6766 903,61.5C 899.348,72.3724 902.181,81.2057 911.5,88C 924.833,93.3333 938.167,98.6667 951.5,104C 968.798,117.052 972.298,133.219 962,152.5C 952.324,162.417 940.491,167.584 926.5,168C 907.432,168.912 888.432,168.246 869.5,166C 869,165.5 868.5,165 868,164.5C 867.177,149.592 867.343,134.759 868.5,120C 870.167,119.333 871.833,119.333 873.5,120C 885.197,134.563 896.53,149.397 907.5,164.5C 921.327,166.994 929.827,161.328 933,147.5C 935.261,136.989 931.761,129.156 922.5,124C 909.177,119.839 896.177,114.839 883.5,109C 869.554,101.189 864.054,89.3552 867,73.5C 870.924,64.7587 877.424,58.5921 886.5,55C 893.142,52.581 899.809,50.7477 906.5,49.5 Z"/></g>
<g><path style="opacity:1" fill="#65768c" d="M 658.5,51.5 C 683.862,51.0899 709.195,51.5899 734.5,53C 754.814,56.6488 767.314,68.4822 772,88.5C 775.099,106.231 773.765,123.565 768,140.5C 758.18,157.338 743.346,165.838 723.5,166C 701.594,166.827 679.76,166.66 658,165.5C 656.845,146.587 656.345,127.587 656.5,108.5C 656.667,90.1667 656.833,71.8333 657,53.5C 657.717,52.9558 658.217,52.2891 658.5,51.5 Z"/></g>
<g><path style="opacity:1" fill="#65768c" d="M 391.5,163.5 C 391.667,135.165 391.5,106.831 391,78.5C 390.283,79.0442 389.783,79.7109 389.5,80.5C 377.226,101.281 364.726,121.947 352,142.5C 349.333,146.5 346.667,146.5 344,142.5C 329.667,119.5 315.333,96.5 301,73.5C 300.333,92.5 300.333,111.5 301,130.5C 306.084,139.003 311.417,147.336 317,155.5C 319.087,159.225 318.92,162.725 316.5,166C 310.833,166.667 305.167,166.667 299.5,166C 298.874,165.25 298.374,164.416 298,163.5C 297.667,131.5 297.333,99.5 297,67.5C 294.365,62.7017 291.532,58.0351 288.5,53.5C 288.709,52.914 289.043,52.414 289.5,52C 296,51.8333 302.5,51.6667 309,51.5C 316.574,51.3852 324.074,51.8852 331.5,53C 343.791,71.7483 355.958,90.5816 368,109.5C 380.5,90.3333 393,71.1667 405.5,52C 413.167,51.3333 420.833,51.3333 428.5,52C 429.308,52.3076 429.975,52.8076 430.5,53.5C 431.66,90.1251 431.827,126.792 431,163.5C 430.5,164.667 429.667,165.5 428.5,166C 416.833,166.667 405.167,166.667 393.5,166C 392.619,165.292 391.953,164.458 391.5,163.5 Z"/></g>
<g><path style="opacity:1" fill="#65768c" d="M 466.5,51.5 C 485.17,51.3334 503.836,51.5001 522.5,52C 536.395,52.038 548.228,56.8713 558,66.5C 566.263,80.2712 566.596,94.2712 559,108.5C 551.676,117.416 542.176,122.583 530.5,124C 520.505,124.676 510.505,125.176 500.5,125.5C 500.814,138.55 500.481,151.55 499.5,164.5C 498.975,165.192 498.308,165.692 497.5,166C 487.167,166.667 476.833,166.667 466.5,166C 465.874,165.25 465.374,164.416 465,163.5C 464.333,127.167 464.333,90.8333 465,54.5C 465.513,53.4734 466.013,52.4734 466.5,51.5 Z"/></g>
<g><path style="opacity:1" fill="#64758b" d="M 588.5,51.5 C 598.839,51.3335 609.172,51.5002 619.5,52C 620,52.5 620.5,53 621,53.5C 621.667,90.5 621.667,127.5 621,164.5C 620.5,165 620,165.5 619.5,166C 609.167,166.667 598.833,166.667 588.5,166C 588,165.5 587.5,165 587,164.5C 586.333,127.5 586.333,90.5 587,53.5C 587.717,52.9558 588.217,52.2891 588.5,51.5 Z"/></g>
<g><path style="opacity:1" fill="#64758b" d="M 801.5,51.5 C 811.839,51.3335 822.172,51.5002 832.5,52C 833,52.5 833.5,53 834,53.5C 834.667,90.5 834.667,127.5 834,164.5C 833.5,165 833,165.5 832.5,166C 822.167,166.667 811.833,166.667 801.5,166C 801,165.5 800.5,165 800,164.5C 799.333,127.5 799.333,90.5 800,53.5C 800.717,52.9558 801.217,52.2891 801.5,51.5 Z"/></g>
<g><path style="opacity:1" fill="#f8f0fc" d="M 500.5,54.5 C 514.727,53.5474 522.893,60.2141 525,74.5C 525.667,83.5 525.667,92.5 525,101.5C 523.837,106.828 521.837,111.828 519,116.5C 513.898,121.49 507.732,123.49 500.5,122.5C 500.5,99.8333 500.5,77.1667 500.5,54.5 Z"/></g>
<g><path style="opacity:1" fill="#f8f0fc" d="M 693.5,53.5 C 711.908,50.0954 724.408,57.0954 731,74.5C 737.491,94.9551 738.158,115.622 733,136.5C 730.453,146.449 725.287,154.616 717.5,161C 715.913,161.862 714.246,162.529 712.5,163C 706.175,163.5 699.842,163.666 693.5,163.5C 693.5,126.833 693.5,90.1667 693.5,53.5 Z"/></g>
<g><path style="opacity:1" fill="#66768c" d="M 212.5,62.5 C 229.833,60.994 236.667,68.6607 233,85.5C 228.037,92.7137 221.203,95.2137 212.5,93C 202.648,87.4714 200.148,79.638 205,69.5C 207.396,66.9334 209.896,64.6 212.5,62.5 Z"/></g>
<g><path style="opacity:1" fill="#acb5c1" d="M 391.5,163.5 C 390.833,135.833 390.167,108.167 389.5,80.5C 389.783,79.7109 390.283,79.0442 391,78.5C 391.5,106.831 391.667,135.165 391.5,163.5 Z"/></g>
<g><path style="opacity:1" fill="#65768c" d="M 205.5,103.5 C 214.173,103.334 222.84,103.5 231.5,104C 232,104.5 232.5,105 233,105.5C 233.667,136.167 233.667,166.833 233,197.5C 232.5,198 232,198.5 231.5,199C 222.833,199.667 214.167,199.667 205.5,199C 205,198.5 204.5,198 204,197.5C 203.333,166.833 203.333,136.167 204,105.5C 204.717,104.956 205.217,104.289 205.5,103.5 Z"/></g>
<g><path style="opacity:1" fill="#c47a98" d="M 1008.5,181.5 C 1008.5,182.5 1008.5,183.5 1008.5,184.5C 764.165,194.896 519.832,205.229 275.5,215.5C 276.469,214.691 277.302,213.691 278,212.5C 278.497,209.854 278.664,207.187 278.5,204.5C 451.162,196.921 623.829,189.421 796.5,182C 867.166,181.5 937.833,181.333 1008.5,181.5 Z"/></g>
</svg>
