<?xml version="1.0" standalone="no"?>
<!DOCTYPE svg PUBLIC "-//W3C//DTD SVG 20010904//EN"
 "http://www.w3.org/TR/2001/REC-SVG-20010904/DTD/svg10.dtd">
<svg version="1.0" xmlns="http://www.w3.org/2000/svg"
 width="1024.000000pt" height="1024.000000pt" viewBox="0 0 1024.000000 1024.000000"
 preserveAspectRatio="xMidYMid meet">
<metadata>
Created by potrace 1.14, written by Peter Selinger 2001-2017
</metadata>
<g transform="translate(0.000000,1024.000000) scale(0.100000,-0.100000)"
fill="#000000" stroke="none">
<path d="M1188 7700 c-9 -6 -21 -25 -27 -43 -14 -42 -131 -1029 -131 -1102 l0
-55 45 0 c52 0 57 6 74 100 72 383 162 553 341 643 l65 32 661 0 c547 0 664
-2 678 -14 15 -13 16 -148 14 -1860 l-3 -1846 -29 -53 c-40 -71 -141 -164
-224 -206 -126 -63 -224 -85 -416 -95 l-131 -6 0 -55 0 -55 1120 0 1120 0 0
55 0 55 -130 7 c-154 7 -233 20 -327 54 -96 35 -180 86 -241 148 -63 63 -95
125 -108 208 -6 39 -8 740 -7 1845 3 1696 4 1783 21 1800 17 17 58 18 685 18
l667 0 60 -29 c81 -40 168 -128 206 -210 l31 -66 -67 -76 c-304 -349 -489
-754 -561 -1229 -26 -169 -26 -532 -1 -700 79 -519 306 -948 690 -1301 331
-306 795 -528 1278 -614 92 -17 180 -24 342 -27 322 -8 414 4 942 125 l290 66
177 0 c105 1 181 5 186 11 5 6 109 231 230 501 161 355 222 500 222 527 l0 37
-49 0 -49 0 -33 -57 c-237 -423 -658 -785 -1063 -918 -405 -133 -964 -88
-1373 110 -545 265 -971 880 -1087 1570 -44 262 -47 658 -7 905 76 471 259
845 550 1123 323 308 733 458 1256 457 277 0 477 -39 681 -135 334 -156 583
-425 809 -875 45 -90 56 -100 105 -100 64 0 60 -39 60 529 0 284 -4 522 -9
530 -9 13 -101 11 -206 -4 -32 -5 -74 5 -220 54 -359 120 -830 205 -1205 217
-593 20 -1231 -182 -1667 -528 -35 -27 -63 -46 -63 -41 0 37 -63 515 -71 540
-20 62 -65 58 -139 -13 -55 -52 -62 -56 -127 -65 -42 -6 -757 -8 -1838 -7
-1679 3 -1772 4 -1810 21 -22 10 -56 33 -75 51 -34 33 -71 56 -87 56 -4 0 -16
-5 -25 -10z"/>
<path d="M7071 7089 c-57 -11 -124 -51 -154 -92 -37 -48 -50 -100 -45 -182 3
-62 8 -80 33 -117 17 -23 53 -56 79 -73 40 -24 62 -30 123 -34 96 -4 149 15
202 76 96 109 90 255 -15 357 -62 60 -138 83 -223 65z"/>
<path d="M7230 5816 c-385 -178 -607 -287 -622 -308 -11 -14 -15 -32 -12 -46
7 -23 28 -31 178 -66 81 -19 141 -50 170 -89 21 -28 21 -33 21 -785 0 -843 5
-782 -69 -860 -43 -47 -93 -70 -199 -93 -98 -22 -130 -40 -125 -73 3 -21 5
-21 598 -21 l595 0 3 27 c4 34 -10 42 -126 67 -140 31 -207 75 -249 166 -17
38 -18 97 -23 1073 -4 903 -7 1034 -20 1042 -20 13 -13 15 -120 -34z"/>
</g>
</svg>
