<?xml version="1.0" encoding="UTF-8"?>
<!DOCTYPE svg PUBLIC "-//W3C//DTD SVG 1.1//EN" "http://www.w3.org/Graphics/SVG/1.1/DTD/svg11.dtd">
<svg xmlns="http://www.w3.org/2000/svg" version="1.1" width="280px" height="280px" style="shape-rendering:geometricPrecision; text-rendering:geometricPrecision; image-rendering:optimizeQuality; fill-rule:evenodd; clip-rule:evenodd" xmlns:xlink="http://www.w3.org/1999/xlink">
<g><path style="opacity:0.991" fill="#000000" d="M 123.5,-0.5 C 134.167,-0.5 144.833,-0.5 155.5,-0.5C 203.703,6.53882 239.87,31.2055 264,73.5C 271.229,88.9285 276.396,104.928 279.5,121.5C 279.5,133.5 279.5,145.5 279.5,157.5C 268.837,215.332 235.837,254.165 180.5,274C 172.021,275.85 163.688,277.683 155.5,279.5C 144.833,279.5 134.167,279.5 123.5,279.5C 75.2971,272.461 39.1305,247.795 15,205.5C 7.49684,190.16 2.33017,174.16 -0.5,157.5C -0.5,145.5 -0.5,133.5 -0.5,121.5C 7.84567,73.6547 33.179,37.8214 75.5,14C 90.8467,6.66809 106.847,1.83476 123.5,-0.5 Z"/></g>
<g><path style="opacity:1" fill="#f5f5f5" d="M 51.5,96.5 C 57.117,96.0492 62.4503,97.0492 67.5,99.5C 78.9956,93.6767 87.829,96.3433 94,107.5C 94.6667,126.833 94.6667,146.167 94,165.5C 92.0042,167.059 89.6709,167.726 87,167.5C 84.3291,167.726 81.9958,167.059 80,165.5C 79.6667,147.5 79.3333,129.5 79,111.5C 77.3333,110.167 75.6667,110.167 74,111.5C 73.6667,129.833 73.3333,148.167 73,166.5C 69.2136,167.795 65.3803,167.795 61.5,166.5C 60.6795,148.21 60.1795,129.877 60,111.5C 58.6439,110.62 57.1439,110.286 55.5,110.5C 55.6666,128.836 55.4999,147.17 55,165.5C 54.5,166 54,166.5 53.5,167C 49.2452,167.796 45.0785,167.629 41,166.5C 40.3333,146.833 40.3333,127.167 41,107.5C 43.2396,102.63 46.7396,98.9635 51.5,96.5 Z"/></g>
<g><path style="opacity:1" fill="#f9f9f9" d="M 129.5,96.5 C 145.688,94.2225 156.855,100.556 163,115.5C 163.917,127.891 163.584,140.224 162,152.5C 154.822,165.785 143.655,170.952 128.5,168C 118.585,165.084 112.418,158.584 110,148.5C 109.063,136.429 109.396,124.429 111,112.5C 114.872,104.485 121.039,99.1519 129.5,96.5 Z"/></g>
<g><path style="opacity:1" fill="#efba00" d="M 200.5,97.5 C 214.741,94.7424 225.574,99.4091 233,111.5C 233.822,113.788 234.489,116.122 235,118.5C 235.667,128.5 235.667,138.5 235,148.5C 232.307,158.56 226.307,165.893 217,170.5C 215.644,178.122 218.644,183.122 226,185.5C 226.799,190.087 226.632,194.587 225.5,199C 213.4,198.255 205.234,192.088 201,180.5C 200.667,177.167 200.333,173.833 200,170.5C 191.608,166.441 185.608,160.108 182,151.5C 181.056,138.097 181.389,124.764 183,111.5C 187.318,104.655 193.152,99.9883 200.5,97.5 Z"/></g>
<g><path style="opacity:1" fill="#040404" d="M 131.5,111.5 C 138.744,109.695 143.911,112.028 147,118.5C 147.667,127.5 147.667,136.5 147,145.5C 144.724,152.558 139.891,155.392 132.5,154C 129.667,152.5 127.5,150.333 126,147.5C 125.333,137.5 125.333,127.5 126,117.5C 127.36,114.977 129.193,112.977 131.5,111.5 Z"/></g>
<g><path style="opacity:1" fill="#070400" d="M 204.5,111.5 C 211.868,110.593 216.701,113.593 219,120.5C 219.667,129.167 219.667,137.833 219,146.5C 216.042,154.145 210.542,156.645 202.5,154C 200.641,152.442 199.141,150.609 198,148.5C 197.333,138.5 197.333,128.5 198,118.5C 199.694,115.642 201.861,113.309 204.5,111.5 Z"/></g>
</svg>
