<?xml version="1.0" encoding="UTF-8"?>
<!DOCTYPE svg PUBLIC "-//W3C//DTD SVG 1.1//EN" "http://www.w3.org/Graphics/SVG/1.1/DTD/svg11.dtd">
<svg xmlns="http://www.w3.org/2000/svg" version="1.1" width="192px" height="192px" style="shape-rendering:geometricPrecision; text-rendering:geometricPrecision; image-rendering:optimizeQuality; fill-rule:evenodd; clip-rule:evenodd" xmlns:xlink="http://www.w3.org/1999/xlink">
<g><path style="opacity:1" fill="#fefefe" d="M -0.5,-0.5 C 63.5,-0.5 127.5,-0.5 191.5,-0.5C 191.5,63.5 191.5,127.5 191.5,191.5C 127.5,191.5 63.5,191.5 -0.5,191.5C -0.5,127.5 -0.5,63.5 -0.5,-0.5 Z"/></g>
<g><path style="opacity:1" fill="#2f3894" d="M 96.5,73.5 C 97.4434,77.3322 98.7768,80.9989 100.5,84.5C 104.599,100.906 102.099,116.239 93,130.5C 79.1351,142.815 63.3018,145.981 45.5,140C 32.2763,133.75 24.7763,123.25 23,108.5C 19.725,69.7715 37.225,52.9382 75.5,58C 84.7122,60.263 91.7122,65.4296 96.5,73.5 Z"/></g>
<g><path style="opacity:1" fill="#585ca8" d="M 149.5,57.5 C 143.155,57.6527 136.822,57.986 130.5,58.5C 134.054,57.0156 137.888,56.3489 142,56.5C 144.69,56.5029 147.19,56.8362 149.5,57.5 Z"/></g>
<g><path style="opacity:1" fill="#2f3894" d="M 149.5,57.5 C 156.358,57.6392 162.691,59.4726 168.5,63C 166.266,66.6355 164.432,70.4689 163,74.5C 162.439,75.0219 161.772,75.3552 161,75.5C 153.487,72.2202 145.654,71.0535 137.5,72C 131.253,76.5135 130.92,81.5135 136.5,87C 142.412,90.1919 148.412,93.1919 154.5,96C 169.081,104.425 172.581,116.258 165,131.5C 154.237,142.04 141.404,145.54 126.5,142C 122.657,140.639 118.991,139.139 115.5,137.5C 114.892,132.056 115.558,127.056 117.5,122.5C 117.833,122.5 118.167,122.5 118.5,122.5C 120.509,124.065 122.843,125.065 125.5,125.5C 125.833,125.5 126.167,125.5 126.5,125.5C 128.515,126.924 130.848,127.59 133.5,127.5C 138.267,127.809 142.934,127.309 147.5,126C 153.04,120.735 152.706,115.735 146.5,111C 137.084,107.215 128.584,102.048 121,95.5C 113.013,83.6608 113.847,72.4941 123.5,62C 125.886,60.8068 128.22,59.6401 130.5,58.5C 136.822,57.986 143.155,57.6527 149.5,57.5 Z"/></g>
<g><path style="opacity:1" fill="#fbfbfd" d="M 54.5,71.5 C 74.8215,69.1568 84.4882,78.1568 83.5,98.5C 84.2914,107.626 81.9581,115.792 76.5,123C 61.1538,131.992 49.9871,128.492 43,112.5C 41.0385,103.161 41.0385,93.8273 43,84.5C 45.2999,78.7063 49.1332,74.373 54.5,71.5 Z"/></g>
<g><path style="opacity:1" fill="#6467ae" d="M 96.5,73.5 C 98.9897,76.6257 100.323,80.2924 100.5,84.5C 98.7768,80.9989 97.4434,77.3322 96.5,73.5 Z"/></g>
<g><path style="opacity:1" fill="#5e64ac" d="M 117.5,122.5 C 115.558,127.056 114.892,132.056 115.5,137.5C 114.512,132.36 114.179,127.026 114.5,121.5C 115.791,121.263 116.791,121.596 117.5,122.5 Z"/></g>
<g><path style="opacity:1" fill="#bfc0de" d="M 118.5,122.5 C 121.491,122.166 123.824,123.166 125.5,125.5C 122.843,125.065 120.509,124.065 118.5,122.5 Z"/></g>
<g><path style="opacity:1" fill="#9ea1cd" d="M 126.5,125.5 C 129.152,125.41 131.485,126.076 133.5,127.5C 130.848,127.59 128.515,126.924 126.5,125.5 Z"/></g>
</svg>
